<svg width="100" height="96" viewBox="0 0 100 96" fill="none" xmlns="http://www.w3.org/2000/svg">
<g clip-path="url(#clip0)">
<path d="M0 11.1004C0 7.88288 1.12616 5.22844 3.37838 3.13713C5.6306 1.04572 8.55859 6.10352e-05 12.1622 6.10352e-05C15.7014 6.10352e-05 18.565 1.0296 20.7529 3.08886C23.0051 5.21242 24.1313 7.9794 24.1313 11.39C24.1313 14.4788 23.0374 17.0528 20.8494 19.112C18.5972 21.2356 15.6371 22.2974 11.9691 22.2974H11.8726C8.3333 22.2974 5.46979 21.2356 3.28185 19.112C1.09392 16.9885 0 14.3179 0 11.1004ZM1.25483 95.5599V31.0811H22.6834V95.5599H1.25483ZM34.556 95.5599H55.9846V59.556C55.9846 57.3037 56.242 55.5663 56.7568 54.3437C57.6576 52.1558 59.0251 50.3057 60.8591 48.7935C62.6931 47.2812 64.9935 46.5252 67.7606 46.5252C74.9679 46.5252 78.5714 51.3836 78.5714 61.1004V95.5599H100V58.5908C100 49.0669 97.7478 41.8437 93.2432 36.9209C88.7387 31.9981 82.7864 29.5367 75.3861 29.5367C67.0849 29.5367 60.6178 33.1082 55.9846 40.251V40.4441H55.888L55.9846 40.251V31.0811H34.556C34.6847 33.1403 34.749 39.5431 34.749 50.2896C34.749 61.0361 34.6847 76.1261 34.556 95.5599Z" fill="black"/>
</g>
<defs>
<clipPath id="clip0">
<rect width="100" height="95.56" fill="white"/>
</clipPath>
</defs>
</svg>
